<svg width="405" height="455" xmlns="http://www.w3.org/2000/svg" xmlns:xlink="http://www.w3.org/1999/xlink" xml:space="preserve" overflow="hidden"><g transform="translate(-349 -173)"><g><g><g><g><path d="M115.542 226.239 0.179444 227.614" stroke="#58595B" stroke-width="29.9073" stroke-linecap="butt" stroke-linejoin="miter" stroke-miterlimit="10" stroke-opacity="1" fill="none" fill-rule="nonzero" transform="matrix(1.00221 0 0 1 350 174.032)"/><path d="M99.1925 172.744 192.802 225.311 100.478 280.112 99.1925 172.744Z" fill="#58595B" fill-rule="nonzero" fill-opacity="1" transform="matrix(1.00221 0 0 1 350 174.032)"/><path d="M203.34 0 203.34 452.936" stroke="#58595B" stroke-width="29.9073" stroke-linecap="butt" stroke-linejoin="miter" stroke-miterlimit="10" stroke-opacity="1" fill="none" fill-rule="nonzero" transform="matrix(1.00221 0 0 1 350 174.032)"/><path d="M346.755 156.425 203.34 223.627" stroke="#58595B" stroke-width="29.9073" stroke-linecap="butt" stroke-linejoin="miter" stroke-miterlimit="10" stroke-opacity="1" fill="none" fill-rule="nonzero" transform="matrix(1.00221 0 0 1 350 174.032)"/><path d="M316.947 122.63 403.11 130.017 353.643 200.957 316.947 122.63Z" fill="#58595B" fill-rule="nonzero" fill-opacity="1" transform="matrix(1.00221 0 0 1 350 174.032)"/><path d="M341.471 298.126 203.34 223.627" stroke="#58595B" stroke-width="29.9073" stroke-linecap="butt" stroke-linejoin="miter" stroke-miterlimit="10" stroke-opacity="1" fill="none" fill-rule="nonzero" transform="matrix(1.00221 0 0 1 350 174.032)"/><path d="M350.862 254.052 396.251 327.674 309.799 330.186 350.862 254.052Z" fill="#58595B" fill-rule="nonzero" fill-opacity="1" transform="matrix(1.00221 0 0 1 350 174.032)"/></g></g></g></g></g></svg>