<svg width="720" height="720" xmlns="http://www.w3.org/2000/svg" xmlns:xlink="http://www.w3.org/1999/xlink" xml:space="preserve" overflow="hidden"><g transform="translate(-280 12)"><g><path d="M527.5 32.9819C515.08 32.9819 505 43.0574 505 55.4819L505 489.309C479.53 479.971 447.13 481.15 415.81 492.562 354.835 514.896 315.1 569.008 327.115 613.41 339.084 657.834 398.216 675.739 459.19 653.401 509.05 635.113 546.13 594.775 549.64 554.964L549.909 167.982 910 167.982 910 444.309C884.53 434.971 852.13 436.15 820.81 447.562 759.835 469.896 720.1 524.008 732.115 568.41 744.084 612.834 803.216 630.739 864.19 608.401 914.051 590.113 951.13 549.775 954.64 509.964L955 55.4819C955 43.0574 944.92 32.9819 932.5 32.9819Z" fill="#404040" fill-rule="nonzero" fill-opacity="1"/></g></g></svg>