<svg width="720" height="720" xmlns="http://www.w3.org/2000/svg" xmlns:xlink="http://www.w3.org/1999/xlink" xml:space="preserve" overflow="hidden"><g transform="translate(-280 0)"><g><path d="M347.676 45C335.252 45 325.176 55.08 325.176 67.5L324.825 540C324.825 608.266 379.694 675 459.123 675 538.548 675 594.825 608.626 594.825 540L595.176 67.5C595.176 55.08 585.101 45 572.676 45ZM460.176 495C484.764 495 505.176 515.429 505.176 540 505.176 564.571 484.764 585 460.176 585 435.588 585 415.176 564.571 415.176 540 415.176 515.429 435.588 495 460.176 495Z" fill="#454545" fill-rule="nonzero" fill-opacity="1"/><path d="M842.324 405C836.358 405 830.633 407.384 826.417 411.57L612.667 625.32C608.446 629.55 606.074 635.265 606.074 641.25L606.074 652.5C606.074 664.92 616.15 675 628.574 675L932.676 675C945.1 675 955.176 664.92 955.176 652.5L955.176 427.5C955.176 415.08 945.1 405 932.676 405Z" fill="#454545" fill-rule="nonzero" fill-opacity="0.5"/><path d="M752.059 90C746.187 90.0906 740.57 92.4307 736.417 96.5698L646.417 186.57C642.196 190.8 639.824 196.515 639.824 202.5L639.824 472.5C639.834 492.525 664.057 502.561 678.232 488.43L903.232 263.43C912.016 254.611 912.016 240.389 903.232 231.57L768.232 96.5698C763.948 92.2961 758.12 89.9094 752.059 90Z" fill="#454545" fill-rule="nonzero" fill-opacity="0.75"/></g></g></svg>