<svg width="720" height="720" xmlns="http://www.w3.org/2000/svg" xmlns:xlink="http://www.w3.org/1999/xlink" xml:space="preserve" overflow="hidden"><g transform="translate(-280 0)"><g><path d="M527.148 44.8281C526.028 44.8618 524.912 44.9792 523.809 45.1797L347.5 45.1797C335.074 45.1811 325.001 55.2535 325 67.6797L325 292.68C325.001 305.106 335.074 315.178 347.5 315.18L415 315.18 415 652.68C415.001 665.106 425.074 675.178 437.5 675.18L842.5 675.18C854.926 675.178 864.999 665.106 865 652.68L865 315.18 932.5 315.18C944.926 315.178 954.999 305.106 955 292.68L955 67.6797C954.999 55.2535 944.926 45.1811 932.5 45.1797L756.104 45.1797C749.585 44.1271 742.933 45.9913 737.91 50.2773 737.611 50.5039 737.318 50.7381 737.031 50.9791 736.761 51.2366 736.497 51.5003 736.24 51.7708 736.21 51.8305 736.18 51.891 736.15 51.9507 735.659 52.4272 735.19 52.9257 734.744 53.4448 734.714 53.5046 734.684 53.565 734.654 53.6247 730.652 58.6105 728.96 65.0629 730 71.3704L730 90.1797C730 122.369 712.873 152.045 685 168.139 657.127 184.233 622.873 184.233 595 168.139 567.127 152.045 550 122.369 550 90.1797L550 71.2832C551.052 64.7642 549.189 58.1127 544.902 53.0898 544.873 53.0294 544.843 52.9697 544.812 52.9099 544.367 52.3908 543.897 51.8923 543.406 51.4158 543.348 51.3856 543.289 51.3554 543.231 51.3259 542.754 50.8356 542.256 50.3666 541.737 49.9217 541.678 49.8914 541.62 49.8612 541.561 49.8317 537.487 46.5338 532.389 44.7622 527.147 44.8219ZM370 90.1797 505 90.1797C505 138.373 530.766 182.977 572.5 207.074 614.234 231.171 665.766 231.171 707.5 207.074 749.234 182.977 775 138.373 775 90.1797L910 90.1797 910 270.18 842.5 270.18C830.074 270.181 820.001 280.253 820 292.68L820 630.18 460 630.18 460 292.68C459.999 280.253 449.926 270.181 437.5 270.18L370 270.18Z" fill="#454545" fill-rule="nonzero" fill-opacity="1"/></g></g></svg>