<svg width="720" height="720" xmlns="http://www.w3.org/2000/svg" xmlns:xlink="http://www.w3.org/1999/xlink" xml:space="preserve" overflow="hidden"><g transform="translate(-280 -32)"><g><path d="M325 76.9992 325 166.999 370 166.999 370 121.999 415 121.999 415 76.9992ZM505 76.9992 505 121.999 595 121.999 595 76.9992ZM685 76.9992 685 121.999 775 121.999 775 76.9992ZM865 76.9992 865 121.999 910 121.999 910 166.999 955 166.999 955 76.9992ZM325 256.999 325 346.999 370 346.999 370 256.999ZM910 256.999 910 346.999 955 346.999 955 256.999ZM325 436.999 325 526.999 370 526.999 370 436.999ZM910 436.999 910 526.999 955 526.999 955 436.999ZM325 616.999 325 706.999 415 706.999 415 661.999 370 661.999 370 616.999ZM910 616.999 910 661.999 865 661.999 865 706.999 955 706.999 955 616.999ZM505 661.999 505 706.999 595 706.999 595 661.999ZM685 661.999 685 706.999 775 706.999 775 661.999Z" fill="#454545" fill-rule="nonzero" fill-opacity="1"/></g></g></svg>