<svg width="720" height="720" xmlns="http://www.w3.org/2000/svg" xmlns:xlink="http://www.w3.org/1999/xlink" xml:space="preserve" overflow="hidden"><g transform="translate(-280 0)"><g><path d="M4898.28 12172.6C4969.09 12172.6 5026.95 12230.5 5026.95 12301.3 5026.95 12372.1 4969.09 12429.9 4898.28 12429.9 4827.46 12429.9 4769.6 12372.1 4769.6 12301.3 4769.6 12230.5 4827.46 12172.6 4898.28 12172.6ZM4898.28 12215.5C4850.62 12215.5 4812.49 12253.6 4812.49 12301.3 4812.49 12348.9 4850.62 12387.1 4898.28 12387.1 4945.88 12387.1 4984.06 12348.9 4984.06 12301.3 4984.06 12253.6 4945.88 12215.5 4898.28 12215.5Z" fill="#454545" fill-rule="nonzero" fill-opacity="1" transform="matrix(1 0 0 1.05964 -4446.04 -12852.6)"/><path d="M4957.94 12509C5028.75 12509 5086.61 12566.8 5086.61 12637.6 5086.61 12708.4 5028.75 12766.3 4957.94 12766.3 4887.12 12766.3 4829.26 12708.4 4829.26 12637.6 4829.26 12566.8 4887.12 12509 4957.94 12509ZM4957.94 12551.8C4910.29 12551.8 4872.16 12590 4872.16 12637.6 4872.16 12685.2 4910.29 12723.4 4957.94 12723.4 5005.54 12723.4 5043.72 12685.2 5043.72 12637.6 5043.72 12590 5005.54 12551.8 4957.94 12551.8Z" fill="#454545" fill-rule="nonzero" fill-opacity="1" transform="matrix(1 0 0 1.05964 -4446.04 -12852.6)"/><path d="M5272.58 12346.2C5343.39 12346.2 5401.25 12404.1 5401.25 12474.9 5401.25 12545.7 5343.39 12603.5 5272.58 12603.5 5201.77 12603.5 5143.91 12545.7 5143.91 12474.9 5143.91 12404.1 5201.77 12346.2 5272.58 12346.2ZM5272.58 12389.1C5224.93 12389.1 5186.8 12427.2 5186.8 12474.9 5186.8 12522.5 5224.93 12560.6 5272.58 12560.6 5320.19 12560.6 5358.36 12522.5 5358.36 12474.9 5358.36 12427.2 5320.19 12389.1 5272.58 12389.1Z" fill="#454545" fill-rule="nonzero" fill-opacity="1" transform="matrix(1 0 0 1.05964 -4446.04 -12852.6)"/></g></g></svg>