<svg width="720" height="720" xmlns="http://www.w3.org/2000/svg" xmlns:xlink="http://www.w3.org/1999/xlink" xml:space="preserve" overflow="hidden"><g transform="translate(-280 0)"><g><path d="M563.729 620.162C562.192 621.598 560.417 623.039 558.545 624 484.097 665.76 423.617 683.039 377.153 664.799 353.921 655.201 336.593 634.078 330.88 609.117 325.217 583.682 328.721 554.883 339.376 521.76 382 389.279 529.553 219.357 682.721 119.039 759.328 68.6426 823.937 43.2012 875.776 48 901.696 50.4023 925.745 62.8828 938.993 84.4805 952.241 106.078 954.545 133.441 949.072 164.162 946.816 177.598 934.384 186.24 921.328 183.838 908.272 181.922 899.489 169.441 901.745 156 901.745 156 901.745 156 901.745 156 905.969 132 902.896 117.598 898.097 109.441 893.345 101.76 886.721 97.4414 871.409 96 840.785 93.1172 780.929 111.838 709.024 158.883 565.312 253.441 421.121 424.318 385.121 536.643 376.097 564.48 374.896 585.598 377.776 598.559 380.609 611.039 385.024 615.838 394.913 620.162 414.737 627.838 466.241 621.117 534.977 582.24 546.448 575.52 561.136 579.357 567.712 590.883 573.088 600.48 571.456 612.48 563.729 620.162Z" fill="#454545" fill-rule="nonzero" fill-opacity="0.6"/><path d="M424.341 47.9517C411.443 47.28 399.261 48.2878 387.779 51.1201 364.811 56.8799 344.915 72.6716 335.464 94.4641 326.018 116.208 325.696 141.792 331.811 170.832 356.282 287.04 477.688 442.848 621.683 556.271 693.683 612.959 760.787 650.256 816.966 665.087 845.056 672.528 870.731 674.64 893.838 668.303 916.95 661.968 936.894 644.88 945.592 621.6 962.982 575.087 944.886 517.872 910.432 453.6 882.318 401.184 840.789 344.16 789.966 288.048L871.341 288.048C884.594 288.24 895.494 277.632 895.682 264.384 895.869 251.136 885.275 240.24 872.018 240.048 871.792 240.048 871.566 240.048 871.341 240.048L735.592 240.048C722.334 240.048 711.592 250.8 711.592 264.048L711.592 399.792C711.405 413.04 721.994 423.936 735.251 424.128 748.504 424.32 759.405 413.711 759.592 400.464 759.592 400.224 759.592 400.032 759.592 399.792L759.592 325.92C805.802 377.76 843.222 429.984 868.058 476.303 899.613 535.152 908.291 584.448 900.683 604.8 896.877 614.976 892.206 618.959 881.186 621.984 870.155 625.008 852.218 624.72 829.341 618.672 783.582 606.576 719.81 572.544 651.309 518.592 514.312 410.688 398.123 252.384 378.87 160.991 374.056 138.144 375.683 122.448 379.528 113.568 383.373 104.736 388.077 100.656 399.405 97.8237 422.047 92.1599 472.302 102.288 536.277 138.768 547.802 145.344 562.47 141.36 569.047 129.84 575.622 118.32 571.61 103.632 560.09 97.0554 508.168 67.4399 463.034 50.0156 424.341 47.9517Z" fill="#454545" fill-rule="nonzero" fill-opacity="1"/></g></g></svg>