<svg width="720" height="720" xmlns="http://www.w3.org/2000/svg" xmlns:xlink="http://www.w3.org/1999/xlink" xml:space="preserve" overflow="hidden"><g transform="translate(-280 0)"><g><path d="M482.815 44.6841C476.695 44.6841 470.889 47.1588 466.615 51.5698L331.615 186.57C322.66 195.12 322.344 209.384 330.94 218.385 339.489 227.34 353.754 227.655 362.754 219.059 362.979 218.834 363.205 218.61 363.429 218.385L498.429 83.3848C507.384 74.7001 507.61 60.4797 498.97 51.5245 494.74 47.1588 488.89 44.6841 482.815 44.6841ZM707.815 44.6841C701.695 44.6841 695.889 47.1588 691.615 51.5698L331.615 411.57C322.66 420.12 322.344 434.384 330.94 443.385 339.489 452.34 353.754 452.655 362.754 444.059 362.979 443.834 363.205 443.61 363.429 443.385L723.429 83.3848C732.384 74.7001 732.61 60.4797 723.97 51.5245 719.74 47.1588 713.89 44.6841 707.815 44.6841ZM932.815 44.6841C926.695 44.6841 920.889 47.1588 916.615 51.5698L717.895 250.289C730.18 259.064 740.935 269.82 749.71 282.104L948.429 83.3848C957.384 74.7001 957.61 60.4797 948.97 51.5245 944.74 47.1588 938.89 44.6841 932.815 44.6841ZM932.815 269.684C926.695 269.684 920.889 272.159 916.615 276.57L556.615 636.57C547.66 645.12 547.344 659.384 555.94 668.385 564.489 677.34 578.754 677.655 587.754 669.059 587.979 668.834 588.205 668.61 588.429 668.385L948.429 308.385C957.384 299.7 957.61 285.48 948.97 276.524 944.74 272.159 938.89 269.684 932.815 269.684ZM640.044 314.955C615.204 314.955 595.044 335.115 595.044 359.955 595.044 384.795 615.204 404.955 640.044 404.955 664.884 404.955 685.044 384.795 685.044 359.955 685.044 335.115 664.884 314.955 640.044 314.955ZM530.335 437.849 331.615 636.57C322.66 645.12 322.344 659.384 330.94 668.385 339.489 677.34 353.754 677.655 362.754 669.059 362.979 668.834 363.205 668.61 363.429 668.385L562.149 469.664C549.91 460.845 539.155 450.089 530.335 437.849ZM932.815 494.684C926.695 494.684 920.889 497.159 916.615 501.57L781.615 636.57C772.66 645.12 772.344 659.384 780.94 668.385 789.489 677.34 803.754 677.655 812.754 669.059 812.979 668.834 813.205 668.61 813.429 668.385L948.429 533.385C957.384 524.7 957.61 510.48 948.97 501.524 944.74 497.159 938.89 494.684 932.815 494.684Z" fill="#454545" fill-rule="nonzero" fill-opacity="1"/></g></g></svg>