<svg width="816" height="612" xmlns="http://www.w3.org/2000/svg" xmlns:xlink="http://www.w3.org/1999/xlink" xml:space="preserve" overflow="hidden"><g transform="translate(-160 0)"><g><path d="M17799.9 9243.75C17791.5 9243.44 17783.5 9247.32 17778.5 9254.1L17447.9 9700.15C17439.1 9711.22 17441 9727.23 17452 9736 17463.1 9744.72 17479.1 9742.84 17487.9 9731.82 17488.2 9731.41 17488.5 9730.95 17488.8 9730.54L17799 9312.09 18108.6 9730.44C18116.8 9741.87 18132.7 9744.47 18144.2 9736.26 18155.6 9728 18158.2 9712.08 18150 9700.66 18149.9 9700.46 18149.7 9700.3 18149.6 9700.15L17819.5 9254.1C17814.9 9247.83 17807.7 9244 17799.9 9243.75Z" fill="#454545" fill-rule="nonzero" fill-opacity="1" transform="matrix(1 0 0 1.02264 -17230.6 -9401.49)"/></g></g></svg>